<?xml version="1.0" encoding="utf-8"?>
<!-- Generator: Adobe Illustrator 18.1.1, SVG Export Plug-In . SVG Version: 6.00 Build 0)  -->
<svg version="1.1" id="Layer_1" xmlns="http://www.w3.org/2000/svg" xmlns:xlink="http://www.w3.org/1999/xlink" x="0px" y="0px"
	 viewBox="0 0 612 792" enable-background="new 0 0 612 792" xml:space="preserve">
<g>
	<g>
		<path fill="#FFFFFF" d="M127.5,510.8h420.7v-25.5H165.8l12.7-44.9L554.6,406L612,205.3l-499.4-37l-14.2-52.8H0v25.3h78.9
			l76.9,286.6L127.5,510.8z M318,402.2l-22.7-96.7h113.3l19.1,86.7L318,402.2z M535.1,382.5l-94.5,8.6l-19-85.5H557L535.1,382.5z
			 M579,228.4l-18.4,64.5H418.8l-17.1-77.7L579,228.4z M388.5,214.2l17.4,78.7H292.4l-20.5-87.3L388.5,214.2z M119.6,194.2
			l139.1,10.4l20.7,88.3H146.1L119.6,194.2z M149.4,305.6h133.1l22.9,97.8l-126.6,11.5L149.4,305.6z"/>
		<path fill="#FFFFFF" d="M503.7,549c-35.2,0-63.7,28.5-63.7,63.7c0,35.2,28.5,63.7,63.7,63.7s63.7-28.5,63.7-63.7
			C567.4,577.5,538.9,549,503.7,549z M503.7,650.6c-20.9,0-37.8-17-37.8-37.8s17-37.8,37.8-37.8c20.9,0,37.8,17,37.8,37.8
			S524.6,650.6,503.7,650.6z"/>
		<path fill="#FFFFFF" d="M171.4,549c-35.2,0-63.7,28.5-63.7,63.7c0,35.2,28.5,63.7,63.7,63.7s63.7-28.5,63.7-63.7
			C235.1,577.5,206.6,549,171.4,549z M171.4,650.6c-20.9,0-37.8-17-37.8-37.8s17-37.8,37.8-37.8c20.9,0,37.8,17,37.8,37.8
			S192.3,650.6,171.4,650.6z"/>
	</g>
</g>
</svg>
